<?xml version="1.0" standalone="no"?>
<!DOCTYPE svg PUBLIC "-//W3C//DTD SVG 20010904//EN"
 "http://www.w3.org/TR/2001/REC-SVG-20010904/DTD/svg10.dtd">
<svg version="1.0" xmlns="http://www.w3.org/2000/svg"
 width="286.000000pt" height="286.000000pt" viewBox="0 0 286.000000 286.000000"
 preserveAspectRatio="xMidYMid meet">
<metadata>
Created by potrace 1.11, written by Peter Selinger 2001-2013
</metadata>
<g transform="translate(0.000000,286.000000) scale(0.100000,-0.100000)"
fill="#000000" stroke="none">
<path d="M1213 2530 c-49 -10 -94 -32 -113 -55 -12 -15 -11 -23 8 -58 39 -76
44 -97 24 -103 -42 -14 -93 -38 -103 -50 -7 -8 -6 -32 2 -78 l11 -66 -61 -67
c-142 -157 -217 -411 -191 -641 13 -113 31 -173 75 -247 47 -78 75 -107 138
-140 29 -16 54 -30 56 -32 3 -2 7 -120 10 -263 l6 -259 34 -35 c19 -20 41 -36
48 -36 7 0 19 -13 28 -30 8 -16 22 -33 30 -37 13 -8 12 -19 -9 -85 -12 -41
-30 -86 -40 -99 -9 -13 -16 -27 -16 -31 0 -5 31 -8 70 -8 l70 0 -3 133 -2 132
25 3 c88 8 180 28 213 44 32 16 37 23 37 53 0 23 5 35 18 39 9 3 24 19 34 35
12 22 21 28 37 24 21 -5 21 -5 -3 -37 -42 -55 -59 -122 -60 -231 0 -55 3 -121
7 -147 l8 -48 90 0 c49 0 89 4 89 9 0 5 -7 37 -16 72 -15 59 -15 63 4 88 31
42 69 35 99 -18 13 -24 29 -68 35 -97 l11 -54 73 0 74 0 -6 43 c-8 52 -44 150
-71 195 -19 31 -20 36 -5 65 21 42 20 134 -1 174 -17 32 -80 73 -113 73 -9 0
-42 -11 -73 -26 -45 -20 -70 -24 -117 -22 l-59 3 -7 50 c-3 28 -7 109 -7 180
-1 151 2 159 81 200 114 60 240 166 284 240 48 83 75 312 55 482 -38 322 -149
468 -387 506 -57 9 -75 16 -80 30 -7 23 -44 37 -98 37 l-43 0 -1 64 c-1 69
-12 100 -40 115 -28 15 -112 21 -159 11z m151 -16 c55 -21 -37 -65 -149 -71
-123 -6 -139 18 -39 57 48 19 155 27 188 14z m-61 -127 c13 -40 -1 -50 -72
-51 -66 -1 -78 6 -87 49 l-5 30 77 0 c76 0 77 0 87 -28z m207 -71 c0 -83 -365
-149 -441 -80 -28 26 -24 32 35 49 48 14 58 14 78 2 53 -34 149 -28 208 11 48
33 120 43 120 18z m-407 -115 c40 -15 170 -13 251 4 38 8 71 14 72 12 1 -1 5
-21 9 -44 6 -41 6 -42 -29 -57 -87 -36 -233 -37 -318 -2 -31 13 -36 21 -41 58
-3 24 -9 53 -13 63 -7 19 -5 18 17 -2 13 -12 37 -26 52 -32z m605 23 c53 -35
129 -168 162 -286 30 -103 37 -297 16 -398 -33 -156 -69 -203 -257 -338 -47
-34 -98 -77 -112 -96 -68 -89 -90 -212 -85 -483 l3 -192 -61 -10 c-77 -14
-134 -14 -187 0 -81 20 -77 7 -88 290 -6 140 -15 271 -20 291 -5 21 -21 50
-35 65 -20 22 -24 24 -19 8 20 -58 20 -58 -34 -25 -55 34 -99 90 -135 173 -35
78 -46 145 -46 276 0 192 54 360 158 491 52 65 104 111 122 105 120 -35 245
-32 360 9 104 37 124 53 128 106 l3 42 52 -6 c29 -4 62 -14 75 -22z"/>
<path d="M1320 1879 c-155 -14 -231 -29 -297 -60 -79 -38 -103 -67 -103 -129
0 -111 96 -150 298 -120 37 5 114 17 172 25 117 17 178 46 211 98 33 53 12
123 -52 168 -31 23 -110 29 -229 18z m193 -37 c10 -9 17 -29 17 -52 0 -44 -44
-94 -91 -104 -75 -15 -139 61 -118 137 9 33 13 36 52 40 61 6 119 -3 140 -21z
m-314 -28 c31 -40 27 -80 -13 -120 -38 -38 -77 -44 -126 -19 -32 17 -43 44
-38 96 3 31 8 36 53 51 72 25 100 23 124 -8z"/>
<path d="M1410 1786 c0 -17 5 -26 16 -26 10 0 14 7 12 22 -5 32 -28 35 -28 4z"/>
<path d="M1114 1765 c-3 -8 -3 -19 1 -25 11 -18 25 -11 25 15 0 27 -17 34 -26
10z"/>
<path d="M1227 1353 c-9 -8 -9 -185 -1 -247 6 -39 10 -46 30 -46 53 0 54 3 54
140 0 71 -3 135 -6 144 -6 16 -64 23 -77 9z"/>
</g>
</svg>
